# xmcd
#
# Track frame offsets: 
#        150
#        14476
#        29325
#        73106
#
# Disc length: 1263 seconds
#
# Revision: 0
# Processed by: cddbd v1.5.2PL0 Copyright (c) Steve Scherf et al.
# Submitted via: ExactAudioCopyFreeDBPlugin 1.0
#
DISCID=3004ed04
DTITLE=Lucy Carr - This Is Goodbye
DYEAR=2003
DGENRE=Dance
TTITLE0=This Is Goodbye (Original Radio Edit)
TTITLE1=This Is Goodbye (LMC Radio Edit)
TTITLE2=This Is Goodbye (Kenny Hayes Sunrise Mix)
TTITLE3=This Is Goodbye (Radio Edit Video)
EXTD=
EXTT0=
EXTT1=
EXTT2=
EXTT3=
PLAYORDER=
